<mxfile host="app.diagrams.net" modified="2024-07-11T17:21:53.053Z" agent="Mozilla/5.0 (Macintosh; Intel Mac OS X 10_15_7) AppleWebKit/537.36 (KHTML, like Gecko) Chrome/126.0.0.0 Safari/537.36" version="24.6.5" etag="YIQEo6o6e1w2s7OmvSen" type="github">
  <diagram name="Page-1" id="bhy2IGaobWTGv--xxzWZ">
    <mxGraphModel>
      <root>
        <mxCell id="0" />
        <mxCell id="1" parent="0" />
      </root>
    </mxGraphModel>
  </diagram>
</mxfile>
